<svg width="128" height="24" viewBox="0 0 128 24" fill="none" xmlns="http://www.w3.org/2000/svg">
<path d="M7.69721 5.49805C7.69721 5.45024 7.69721 5.49805 7.69721 5.49805C7.50598 5.49805 7.31474 5.49805 7.17132 5.49805C6.07171 5.49805 5.11554 5.7371 4.39841 6.16737C3.68127 6.64546 3.10757 7.17136 2.7251 7.74506V2.72514C2.67729 1.24307 1.48207 0.0478516 0 0.0478516V12.0479C0 13.7212 0.621514 15.251 1.67331 16.4463C2.86853 17.8805 4.68526 18.7411 6.69323 18.7411C6.93227 18.7411 7.12351 18.7411 7.31474 18.6933C10.7092 18.3586 13.3386 15.5379 13.3386 12.0479C13.3386 8.74905 10.9004 5.97614 7.69721 5.49805ZM9.51394 15.1554C8.749 15.9204 7.79283 16.3506 6.64542 16.3506C5.49801 16.3506 4.54183 15.9682 3.8247 15.1554C3.10757 14.3427 2.7251 13.3387 2.7251 12.0479C2.7251 10.8048 3.10757 9.75303 3.8247 8.94028C4.54183 8.12753 5.49801 7.74506 6.64542 7.74506C7.41036 7.74506 8.12749 7.9363 8.7012 8.27096C9.2749 8.65343 9.75299 9.13152 10.0877 9.80084C10.4223 10.4702 10.6135 11.1873 10.6135 12C10.6135 13.3387 10.2789 14.3905 9.51394 15.1554Z" fill="#6768AB"/>
<path d="M15.2988 18.4064V5.73705H17.7371L17.9761 8.12749C18.4064 7.31474 19.0279 6.64541 19.8407 6.16733C20.6534 5.68924 21.6096 5.4502 22.7092 5.4502V8.27091H21.9921C21.2271 8.27091 20.5578 8.41434 19.9841 8.65338C19.4104 8.89243 18.9323 9.32271 18.5976 9.89641C18.263 10.4701 18.0717 11.2829 18.0717 12.3347V18.4064H15.2988Z" fill="#6768AB"/>
<path d="M28.255 18.6933C27.2032 18.6933 26.2948 18.502 25.6255 18.1674C24.9084 17.8327 24.4303 17.3546 24.0478 16.7331C23.7131 16.1594 23.5219 15.4901 23.5219 14.8208C23.5219 13.5777 24 12.6216 24.9562 11.9044C25.9123 11.1873 27.251 10.8526 29.0199 10.8526H32.3187V10.6136C32.3187 9.6096 32.0319 8.89247 31.506 8.41438C30.9801 7.93629 30.2629 7.69725 29.4502 7.69725C28.6853 7.69725 28.0637 7.88849 27.49 8.22315C27.3466 8.31876 27.251 8.41438 27.1554 8.51C26.2948 9.32275 25.243 9.84864 24.0478 9.84864H23.761C23.8566 8.94028 24.1434 8.12753 24.6693 7.50602C25.1952 6.83669 25.8645 6.3586 26.7251 6.02394C27.5378 5.68928 28.4462 5.49805 29.4502 5.49805C31.2191 5.49805 32.6056 5.97613 33.5618 6.8845C34.5179 7.79287 34.996 9.0837 34.996 10.6614V18.4542H32.6534L32.4143 16.3028C32.0797 17.02 31.5538 17.5937 30.8367 18.0718C30.2629 18.4542 29.3546 18.6933 28.255 18.6933ZM28.7809 16.4941C29.498 16.4941 30.1195 16.3028 30.6454 15.9682C31.1235 15.6335 31.5538 15.1554 31.8406 14.5817C32.1275 14.008 32.3187 13.3865 32.3665 12.6694H29.3546C28.3028 12.6694 27.5378 12.8606 27.0598 13.2431C26.6295 13.6255 26.3904 14.1036 26.3904 14.6295C26.3904 15.2032 26.6295 15.6813 27.0598 16.016C27.4422 16.3506 28.0159 16.4941 28.7809 16.4941Z" fill="#6768AB"/>
<path d="M38.7251 3.34661C38.1992 3.34661 37.8167 3.20319 37.4821 2.86853C37.1474 2.53386 37.004 2.15139 37.004 1.67331C37.004 1.19522 37.1474 0.812749 37.4821 0.478088C37.8167 0.143426 38.247 0 38.7251 0C39.2032 0 39.6334 0.143426 39.9681 0.478088C40.3028 0.812749 40.4462 1.19522 40.4462 1.67331C40.4462 2.15139 40.3028 2.53386 39.9681 2.86853C39.6334 3.20319 39.251 3.34661 38.7251 3.34661ZM37.3864 18.4064V5.73705C38.8685 5.73705 40.1115 6.93227 40.1115 8.46215V18.4064H37.3864Z" fill="#6768AB"/>
<path d="M42.6454 18.4063V5.73701H45.0359L45.2271 7.93621C45.6096 7.17127 46.1833 6.54975 46.9482 6.07167C47.7132 5.64139 48.5737 5.40234 49.5777 5.40234C51.1076 5.40234 52.3028 5.88043 53.1634 6.83661C54.0239 7.79278 54.4542 9.22705 54.4542 11.0916V18.3585H51.7769V11.4262C51.7769 8.988 50.7729 7.74497 48.765 7.74497C47.761 7.74497 46.9482 8.07963 46.2789 8.79677C45.6096 9.5139 45.2749 10.5179 45.2749 11.8565V18.4063H42.6454Z" fill="#6768AB"/>
<path d="M57.7053 24L60.3826 18.1673L60.0001 17.3546L54.9802 5.73706C56.7491 5.73706 58.3746 6.78885 59.0439 8.46216L61.8168 15.1076L64.7331 8.36654C65.4025 6.78885 66.9802 5.73706 68.7013 5.73706L60.526 24H57.7053Z" fill="#6768AB"/>
<path d="M74.7728 18.6932C73.5298 18.6932 72.4302 18.4063 71.4262 17.8326C70.4701 17.2589 69.7051 16.494 69.1314 15.49C68.5577 14.486 68.3187 13.3386 68.3187 12.0478C68.3187 10.7569 68.6055 9.60952 69.1314 8.60553C69.7051 7.60155 70.4701 6.83661 71.4262 6.2629C72.3824 5.6892 73.5298 5.40234 74.7728 5.40234C76.3505 5.40234 77.6414 5.83262 78.6932 6.64537C79.745 7.45812 80.4621 8.55772 80.7489 9.94418H80.3665C79.1713 9.94418 78.0238 9.41828 77.1633 8.60553C77.0677 8.50991 76.9242 8.4143 76.8286 8.31868C76.2549 7.93621 75.5856 7.74497 74.7728 7.74497C74.1035 7.74497 73.482 7.8884 72.9561 8.22306C72.3824 8.55772 71.9521 9.03581 71.6175 9.65732C71.2828 10.2788 71.0916 11.0916 71.0916 12C71.0916 12.9561 71.2828 13.7211 71.6175 14.3426C71.9521 14.9641 72.4302 15.49 72.9561 15.8247C73.5298 16.1593 74.1513 16.3506 74.7728 16.3506C75.5378 16.3506 76.2549 16.1593 76.8286 15.7768C76.9721 15.6812 77.0677 15.5856 77.1633 15.49C78.0717 14.6294 79.1713 14.1035 80.4143 14.1035H80.7968C80.5099 15.4422 79.8406 16.5418 78.741 17.4023C77.6414 18.3107 76.3505 18.6932 74.7728 18.6932Z" fill="#6768AB"/>
<path d="M82.6613 18.4064V0.0478516C84.1434 0.0478516 85.3864 1.24307 85.3864 2.77295V18.4064H82.6613Z" fill="#6768AB"/>
<path d="M93.7052 18.6932C92.51 18.6932 91.4104 18.4063 90.4542 17.8804C89.498 17.3067 88.7331 16.5418 88.1594 15.5378C87.5857 14.5338 87.2988 13.3864 87.2988 12.0478C87.2988 10.7091 87.5857 9.56171 88.1594 8.55772C88.7331 7.55374 89.498 6.7888 90.4542 6.21509C91.4104 5.64139 92.51 5.40234 93.7052 5.40234C94.9004 5.40234 96 5.6892 96.9562 6.21509C97.9124 6.7888 98.6773 7.55374 99.251 8.55772C99.8247 9.56171 100.112 10.7091 100.112 12.0478C100.112 13.3864 99.8247 14.5338 99.251 15.5378C98.6773 16.5418 97.9124 17.3067 96.9562 17.8804C96 18.4541 94.9004 18.6932 93.7052 18.6932ZM93.7052 16.3984C94.3745 16.3984 94.9482 16.2549 95.5219 15.9203C96.0956 15.5856 96.5259 15.1075 96.8606 14.486C97.1952 13.8645 97.3865 13.0517 97.3865 12.0956C97.3865 11.1394 97.243 10.3266 96.9084 9.70513C96.5737 9.08362 96.1434 8.60553 95.5697 8.27087C94.996 7.93621 94.4223 7.79278 93.753 7.79278C93.0837 7.79278 92.51 7.93621 91.9363 8.27087C91.3626 8.60553 90.9323 9.08362 90.5976 9.70513C90.263 10.3266 90.0717 11.1394 90.0717 12.0956C90.0717 13.0517 90.263 13.8645 90.5976 14.486C90.9323 15.1075 91.3626 15.5856 91.9363 15.9203C92.4622 16.2071 93.0359 16.3984 93.7052 16.3984Z" fill="#6768AB"/>
<path d="M108 18.6932C106.757 18.6932 105.657 18.4063 104.653 17.8326C103.697 17.2589 102.932 16.494 102.359 15.49C101.785 14.486 101.546 13.3386 101.546 12.0478C101.546 10.7569 101.833 9.60952 102.359 8.60553C102.932 7.60155 103.697 6.83661 104.653 6.2629C105.61 5.6892 106.757 5.40234 108 5.40234C109.578 5.40234 110.869 5.83262 111.92 6.64537C112.972 7.45812 113.689 8.55772 113.976 9.94418H113.594C112.398 9.94418 111.251 9.41828 110.391 8.60553C110.295 8.50991 110.151 8.4143 110.056 8.31868C109.482 7.93621 108.813 7.74497 108 7.74497C107.331 7.74497 106.709 7.8884 106.183 8.22306C105.61 8.55772 105.179 9.03581 104.845 9.65732C104.51 10.2788 104.319 11.0916 104.319 12C104.319 12.9561 104.51 13.7211 104.845 14.3426C105.179 14.9641 105.657 15.49 106.183 15.8247C106.757 16.1593 107.379 16.3506 108 16.3506C108.765 16.3506 109.482 16.1593 110.056 15.7768C110.199 15.6812 110.295 15.5856 110.391 15.49C111.299 14.6294 112.398 14.1035 113.642 14.1035H114.024C113.737 15.4422 113.068 16.5418 111.968 17.4023C110.916 18.3107 109.578 18.6932 108 18.6932Z" fill="#6768AB"/>
<path d="M115.936 18.4064V0.0478516C117.418 0.0478516 118.661 1.24307 118.661 2.77295V10.9961L123.49 5.7849H126.741L121.339 11.522L127.506 18.4542H124.112L118.661 12V18.4542H115.936V18.4064Z" fill="#6768AB"/>
</svg>
